<?xml version="1.0" encoding="UTF-8"?>
<svg id="Layer_1" xmlns="http://www.w3.org/2000/svg" version="1.1" viewBox="0 0 300 400">
  <!-- Generator: Adobe Illustrator 29.2.1, SVG Export Plug-In . SVG Version: 2.1.0 Build 116)  -->
  <defs>
    <style>
      .st0 {
        fill: #0071bc;
      }
    </style>
  </defs>
  <path d="M218.85,6.33c41.99,0,76.15,34.16,76.15,76.15v235.03c0,41.99-34.16,76.15-76.15,76.15H81.15c-41.99,0-76.15-34.16-76.15-76.15V82.48C5,40.49,39.16,6.33,81.15,6.33h137.7M218.85,5.33H81.15C38.54,5.33,4,39.87,4,82.48v235.03c0,42.61,34.54,77.15,77.15,77.15h137.7c42.61,0,77.15-34.54,77.15-77.15V82.48c0-42.61-34.54-77.15-77.15-77.15h0Z"/>
  <path class="st0" d="M216.1,16.75c39.19,0,71.06,31.88,71.06,71.06v225.63c0,39.19-31.88,71.06-71.06,71.06H83.9c-39.19,0-71.06-31.88-71.06-71.06V87.81c0-39.19,31.88-71.06,71.06-71.06h132.19M216.1,13.75H83.9C43,13.75,9.84,46.91,9.84,87.81v225.63c0,40.9,33.16,74.06,74.06,74.06h132.19c40.9,0,74.06-33.16,74.06-74.06V87.81c0-40.9-33.16-74.06-74.06-74.06h0Z"/>
</svg>